<?xml version="1.0" encoding="utf-8"?>
<!-- Generator: Adobe Illustrator 21.0.1, SVG Export Plug-In . SVG Version: 6.00 Build 0)  -->
<svg version="1.1" baseProfile="tiny"
	 id="svg84235" inkscape:version="0.48.4 r9939" sodipodi:docname="РќРѕРІС‹Р№ РґРѕРєСѓРјРµРЅС‚ 35" xmlns:cc="http://creativecommons.org/ns#" xmlns:dc="http://purl.org/dc/elements/1.1/" xmlns:inkscape="http://www.inkscape.org/namespaces/inkscape" xmlns:rdf="http://www.w3.org/1999/02/22-rdf-syntax-ns#" xmlns:sodipodi="http://sodipodi.sourceforge.net/DTD/sodipodi-0.dtd" xmlns:svg="http://www.w3.org/2000/svg"
	 xmlns="http://www.w3.org/2000/svg" xmlns:xlink="http://www.w3.org/1999/xlink" x="0px" y="0px" viewBox="0 0 709.6 992.4"
	 overflow="scroll" xml:space="preserve">
<sodipodi:namedview  bordercolor="#666666" borderopacity="1.0" id="base" inkscape:current-layer="layer1" inkscape:cx="373.00602" inkscape:cy="461.49439" inkscape:document-units="px" inkscape:pageopacity="0.0" inkscape:pageshadow="2" inkscape:window-height="838" inkscape:window-maximized="1" inkscape:window-width="1600" inkscape:window-x="-8" inkscape:window-y="-8" inkscape:zoom="0.49497475" pagecolor="#ffffff" showgrid="false">
	</sodipodi:namedview>
<g id="layer1" inkscape:groupmode="layer" inkscape:label="Layer 1">
	<g id="g15148" transform="matrix(3.1930255,0,0,3.1930255,1773.0136,-1536.7049)">
		<path id="rect13068" fill="#FFFFFF" stroke="#000000" d="M-544.6,481.3h201c5.9,0,10.6,4.8,10.6,10.6v289.6
			c0,5.9-4.8,10.6-10.6,10.6h-201c-5.9,0-10.6-4.8-10.6-10.6V491.9C-555.3,486-550.5,481.3-544.6,481.3z"/>
		
			<rect id="rect13070" x="-542.7" y="493.4" fill="none" stroke="#000000" stroke-width="4.9524" stroke-linecap="round" width="197.1" height="286.6"/>
		<g id="rect13072">
			<image width="602" height="892" xlink:href="B8F59738.png"  transform="matrix(0.3132 0 0 0.3132 -538.3651 497.0417)">
			</image>
			<path d="M-349.9,776.3h-188.6V497.1h188.6V776.3z M-538.1,776h188V497.4h-188V776z"/>
		</g>
	</g>
</g>
<g>
	
		<sodipodi:namedview  bordercolor="#666666" borderopacity="1.0" id="base" inkscape:current-layer="layer1" inkscape:cx="117.04792" inkscape:cy="540.64385" inkscape:document-units="px" inkscape:pageopacity="0.0" inkscape:pageshadow="2" inkscape:snap-bbox="true" inkscape:snap-global="true" inkscape:snap-page="true" inkscape:window-height="1054" inkscape:window-maximized="1" inkscape:window-width="1920" inkscape:window-x="-9" inkscape:window-y="-9" inkscape:zoom="0.98994948" pagecolor="#ffffff" showgrid="false">
		</sodipodi:namedview>
</g>
<g>
	
		<sodipodi:namedview  bordercolor="#666666" borderopacity="1.0" id="base" inkscape:current-layer="layer1" inkscape:cx="238.22195" inkscape:cy="442.43337" inkscape:document-units="px" inkscape:pageopacity="0.0" inkscape:pageshadow="2" inkscape:snap-bbox="true" inkscape:snap-global="true" inkscape:snap-page="true" inkscape:window-height="925" inkscape:window-maximized="0" inkscape:window-width="735" inkscape:window-x="784" inkscape:window-y="63" inkscape:zoom="0.98994948" pagecolor="#ffffff" showgrid="false">
		</sodipodi:namedview>
</g>
<g>
	
		<sodipodi:namedview  bordercolor="#666666" borderopacity="1.0" id="base" inkscape:current-layer="layer1" inkscape:cx="117.04792" inkscape:cy="540.64385" inkscape:document-units="px" inkscape:pageopacity="0.0" inkscape:pageshadow="2" inkscape:snap-bbox="true" inkscape:snap-global="true" inkscape:snap-page="true" inkscape:window-height="1054" inkscape:window-maximized="1" inkscape:window-width="1920" inkscape:window-x="-9" inkscape:window-y="-9" inkscape:zoom="0.98994948" pagecolor="#ffffff" showgrid="false">
		</sodipodi:namedview>
	<g id="layer1_2_" inkscape:groupmode="layer" inkscape:label="AC">
		<g id="g3822_1_" transform="translate(-713.31495,92.135109)">
			<g id="g6650_1_">
				<g id="g6643_1_">
					<path id="path3235_1_" inkscape:connector-curvature="0" sodipodi:nodetypes="cccscccccscscc" d="M1043.3,547.4
						c11.7-23.3,20.1-47.1,21.3-72.4c1.2-9.2-4.4-9.7-5.2-2.8c-16.5,62.7-103.8,45.8-100.5-13.3c2.4-47.9,49.9-58.3,74.8-42.6
						c9.7,5.6,9.2,2.4,4-3.6c-37-41-14.5-94.1,35.4-94.9c53.9,3.2,68,59.9,34.6,92.9c-4,4-13.3,16.9,0.4,8
						c33.4-23.7,79.6,1.6,78.8,38.2c-1.6,67.2-83.7,72.4-101.3,16.1c-1.6-6.4-6.4-9.2-5.2,1.2c2.4,19.3,7.6,48.3,21.7,73.2
						C1102,547.4,1043.3,547.4,1043.3,547.4z"/>
				</g>
			</g>
		</g>
	</g>
</g>
</svg>
