<?xml version="1.0" encoding="utf-8"?>
<!-- Generator: Adobe Illustrator 21.0.1, SVG Export Plug-In . SVG Version: 6.00 Build 0)  -->
<svg version="1.1" baseProfile="tiny"
	 id="svg84235" inkscape:version="0.48.4 r9939" sodipodi:docname="РќРѕРІС‹Р№ РґРѕРєСѓРјРµРЅС‚ 35" xmlns:cc="http://creativecommons.org/ns#" xmlns:dc="http://purl.org/dc/elements/1.1/" xmlns:inkscape="http://www.inkscape.org/namespaces/inkscape" xmlns:rdf="http://www.w3.org/1999/02/22-rdf-syntax-ns#" xmlns:sodipodi="http://sodipodi.sourceforge.net/DTD/sodipodi-0.dtd" xmlns:svg="http://www.w3.org/2000/svg"
	 xmlns="http://www.w3.org/2000/svg" xmlns:xlink="http://www.w3.org/1999/xlink" x="0px" y="0px" viewBox="0 0 709.6 992.4"
	 overflow="scroll" xml:space="preserve">
<sodipodi:namedview  bordercolor="#666666" borderopacity="1.0" id="base" inkscape:current-layer="layer1" inkscape:cx="373.00602" inkscape:cy="461.49439" inkscape:document-units="px" inkscape:pageopacity="0.0" inkscape:pageshadow="2" inkscape:window-height="838" inkscape:window-maximized="1" inkscape:window-width="1600" inkscape:window-x="-8" inkscape:window-y="-8" inkscape:zoom="0.49497475" pagecolor="#ffffff" showgrid="false">
	</sodipodi:namedview>
<g id="layer1" inkscape:groupmode="layer" inkscape:label="Layer 1">
	<g id="g15148" transform="matrix(3.1930255,0,0,3.1930255,1773.0136,-1536.7049)">
		<path id="rect13068" fill="#FFFFFF" stroke="#000000" d="M-544.6,481.3h201c5.9,0,10.6,4.8,10.6,10.6v289.6
			c0,5.9-4.8,10.6-10.6,10.6h-201c-5.9,0-10.6-4.8-10.6-10.6V491.9C-555.3,486-550.5,481.3-544.6,481.3z"/>
		
			<rect id="rect13070" x="-542.7" y="493.4" fill="none" stroke="#000000" stroke-width="4.9524" stroke-linecap="round" width="197.1" height="286.6"/>
		<g id="rect13072">
			<image width="602" height="892" xlink:href="532785DB.png"  transform="matrix(0.3132 0 0 0.3132 -538.3651 497.0417)">
			</image>
			<path d="M-349.9,776.3h-188.6V497.1h188.6V776.3z M-538.1,776h188V497.4h-188V776z"/>
		</g>
	</g>
</g>
<g>
	
		<sodipodi:namedview  bordercolor="#666666" borderopacity="1.0" id="base" inkscape:current-layer="layer1" inkscape:cx="117.04792" inkscape:cy="540.64385" inkscape:document-units="px" inkscape:pageopacity="0.0" inkscape:pageshadow="2" inkscape:snap-bbox="true" inkscape:snap-global="true" inkscape:snap-page="true" inkscape:window-height="1054" inkscape:window-maximized="1" inkscape:window-width="1920" inkscape:window-x="-9" inkscape:window-y="-9" inkscape:zoom="0.98994948" pagecolor="#ffffff" showgrid="false">
		</sodipodi:namedview>
</g>
<g>
	
		<sodipodi:namedview  bordercolor="#666666" borderopacity="1.0" id="base" inkscape:current-layer="layer1" inkscape:cx="380.51381" inkscape:cy="425.89234" inkscape:document-units="px" inkscape:pageopacity="0.0" inkscape:pageshadow="2" inkscape:snap-bbox="true" inkscape:snap-global="true" inkscape:snap-page="true" inkscape:window-height="925" inkscape:window-maximized="0" inkscape:window-width="1162" inkscape:window-x="534" inkscape:window-y="45" inkscape:zoom="0.69999999" pagecolor="#ffffff" showgrid="false">
		</sodipodi:namedview>
	<g id="layer1_2_" inkscape:groupmode="layer" inkscape:label="AS">
		<g id="g3741_1_" transform="translate(-5774.2676,3117.0866)">
			<g id="g8567-7_1_" transform="matrix(0.30106207,0,0,0.30106207,5730.6419,-1948.1116)">
				<path id="path3692_1_" inkscape:connector-curvature="0" sodipodi:nodetypes="ccccc" fill="#D40000" d="M1062.4-2232
					c116.6-113.8,192.9-237.4,266.1-356.5c64.3,131.1,156.2,245.9,255.8,356.5c-106.4,109.9-189,227.5-255.5,351.2
					C1255.4-2007.3,1178-2122.1,1062.4-2232z"/>
			</g>
		</g>
	</g>
</g>
</svg>
