<?xml version="1.0" encoding="utf-8"?>
<!-- Generator: Adobe Illustrator 21.0.1, SVG Export Plug-In . SVG Version: 6.00 Build 0)  -->
<svg version="1.1" baseProfile="tiny"
	 id="svg84235" inkscape:version="0.48.4 r9939" sodipodi:docname="РќРѕРІС‹Р№ РґРѕРєСѓРјРµРЅС‚ 35" xmlns:cc="http://creativecommons.org/ns#" xmlns:dc="http://purl.org/dc/elements/1.1/" xmlns:inkscape="http://www.inkscape.org/namespaces/inkscape" xmlns:rdf="http://www.w3.org/1999/02/22-rdf-syntax-ns#" xmlns:sodipodi="http://sodipodi.sourceforge.net/DTD/sodipodi-0.dtd" xmlns:svg="http://www.w3.org/2000/svg"
	 xmlns="http://www.w3.org/2000/svg" xmlns:xlink="http://www.w3.org/1999/xlink" x="0px" y="0px" viewBox="0 0 709.6 992.4"
	 overflow="scroll" xml:space="preserve">
<sodipodi:namedview  bordercolor="#666666" borderopacity="1.0" id="base" inkscape:current-layer="layer1" inkscape:cx="373.00602" inkscape:cy="461.49439" inkscape:document-units="px" inkscape:pageopacity="0.0" inkscape:pageshadow="2" inkscape:window-height="838" inkscape:window-maximized="1" inkscape:window-width="1600" inkscape:window-x="-8" inkscape:window-y="-8" inkscape:zoom="0.49497475" pagecolor="#ffffff" showgrid="false">
	</sodipodi:namedview>
<g id="layer1" inkscape:groupmode="layer" inkscape:label="Layer 1">
	<g id="g15148" transform="matrix(3.1930255,0,0,3.1930255,1773.0136,-1536.7049)">
		<path id="rect13068" fill="#FFFFFF" stroke="#000000" d="M-544.6,481.3h201c5.9,0,10.6,4.8,10.6,10.6v289.6
			c0,5.9-4.8,10.6-10.6,10.6h-201c-5.9,0-10.6-4.8-10.6-10.6V491.9C-555.3,486-550.5,481.3-544.6,481.3z"/>
		
			<rect id="rect13070" x="-542.7" y="493.4" fill="none" stroke="#000000" stroke-width="4.9524" stroke-linecap="round" width="197.1" height="286.6"/>
		<g id="rect13072">
			<image width="602" height="892" xlink:href="AAA59E45.png"  transform="matrix(0.3132 0 0 0.3132 -538.3651 497.0417)">
			</image>
			<path d="M-349.9,776.3h-188.6V497.1h188.6V776.3z M-538.1,776h188V497.4h-188V776z"/>
		</g>
	</g>
</g>
<g>
	
		<sodipodi:namedview  bordercolor="#666666" borderopacity="1.0" id="base" inkscape:current-layer="layer1" inkscape:cx="117.04792" inkscape:cy="540.64385" inkscape:document-units="px" inkscape:pageopacity="0.0" inkscape:pageshadow="2" inkscape:snap-bbox="true" inkscape:snap-global="true" inkscape:snap-page="true" inkscape:window-height="1054" inkscape:window-maximized="1" inkscape:window-width="1920" inkscape:window-x="-9" inkscape:window-y="-9" inkscape:zoom="0.98994948" pagecolor="#ffffff" showgrid="false">
		</sodipodi:namedview>
</g>
<g>
	
		<sodipodi:namedview  bordercolor="#666666" borderopacity="1.0" id="base" inkscape:current-layer="layer1" inkscape:cx="238.22195" inkscape:cy="442.43337" inkscape:document-units="px" inkscape:pageopacity="0.0" inkscape:pageshadow="2" inkscape:snap-bbox="true" inkscape:snap-global="true" inkscape:snap-page="true" inkscape:window-height="925" inkscape:window-maximized="0" inkscape:window-width="735" inkscape:window-x="784" inkscape:window-y="63" inkscape:zoom="0.98994948" pagecolor="#ffffff" showgrid="false">
		</sodipodi:namedview>
	<g id="layer1_2_" inkscape:groupmode="layer" inkscape:label="Layer 1">
		<g id="g8889_1_" transform="translate(-1090.3923,198.14981)">
			<path id="path8512_1_" inkscape:connector-curvature="0" sodipodi:nodetypes="ccccsccssc" fill="#D40000" d="M1399.5,188.8
				c27-1.9,41.4,21.3,44,39.5c1.5,3,2.7,1.9,3,0c1.1-23.5,22.4-42.5,41.8-39.9c31.5,0.4,50.9,35.7,45.6,65.3
				c-6.5,36.5-26.2,58.5-41,80.9c-16.7,23.5-39.5,57-46.7,73.3c0,0-22.8-34.9-52.8-75.9c-20.1-27.3-36.1-57.3-37.6-82.8
				C1353.9,219.6,1366,193.4,1399.5,188.8L1399.5,188.8z"/>
		</g>
	</g>
</g>
</svg>
