<?xml version="1.0" encoding="utf-8"?>
<!-- Generator: Adobe Illustrator 21.0.1, SVG Export Plug-In . SVG Version: 6.00 Build 0)  -->
<svg version="1.1" baseProfile="tiny"
	 id="svg84235" inkscape:version="0.48.4 r9939" sodipodi:docname="РќРѕРІС‹Р№ РґРѕРєСѓРјРµРЅС‚ 35" xmlns:cc="http://creativecommons.org/ns#" xmlns:dc="http://purl.org/dc/elements/1.1/" xmlns:inkscape="http://www.inkscape.org/namespaces/inkscape" xmlns:rdf="http://www.w3.org/1999/02/22-rdf-syntax-ns#" xmlns:sodipodi="http://sodipodi.sourceforge.net/DTD/sodipodi-0.dtd" xmlns:svg="http://www.w3.org/2000/svg"
	 xmlns="http://www.w3.org/2000/svg" xmlns:xlink="http://www.w3.org/1999/xlink" x="0px" y="0px" viewBox="0 0 709.6 992.4"
	 overflow="scroll" xml:space="preserve">
<sodipodi:namedview  bordercolor="#666666" borderopacity="1.0" id="base" inkscape:current-layer="layer1" inkscape:cx="373.00602" inkscape:cy="461.49439" inkscape:document-units="px" inkscape:pageopacity="0.0" inkscape:pageshadow="2" inkscape:window-height="838" inkscape:window-maximized="1" inkscape:window-width="1600" inkscape:window-x="-8" inkscape:window-y="-8" inkscape:zoom="0.49497475" pagecolor="#ffffff" showgrid="false">
	</sodipodi:namedview>
<g id="layer1" inkscape:groupmode="layer" inkscape:label="Layer 1">
	<g id="g15148" transform="matrix(3.1930255,0,0,3.1930255,1773.0136,-1536.7049)">
		<path id="rect13068" fill="#FFFFFF" stroke="#000000" d="M-544.6,481.3h201c5.9,0,10.6,4.8,10.6,10.6v289.6
			c0,5.9-4.8,10.6-10.6,10.6h-201c-5.9,0-10.6-4.8-10.6-10.6V491.9C-555.3,486-550.5,481.3-544.6,481.3z"/>
		
			<rect id="rect13070" x="-542.7" y="493.4" fill="none" stroke="#000000" stroke-width="4.9524" stroke-linecap="round" width="197.1" height="286.6"/>
		<g id="rect13072">
			<image width="602" height="892" xlink:href="B8F5973B.png"  transform="matrix(0.3132 0 0 0.3132 -538.3651 497.0417)">
			</image>
			<path d="M-349.9,776.3h-188.6V497.1h188.6V776.3z M-538.1,776h188V497.4h-188V776z"/>
		</g>
	</g>
</g>
<g>
	
		<sodipodi:namedview  bordercolor="#666666" borderopacity="1.0" id="base" inkscape:current-layer="layer1" inkscape:cx="117.04792" inkscape:cy="540.64385" inkscape:document-units="px" inkscape:pageopacity="0.0" inkscape:pageshadow="2" inkscape:snap-bbox="true" inkscape:snap-global="true" inkscape:snap-page="true" inkscape:window-height="1054" inkscape:window-maximized="1" inkscape:window-width="1920" inkscape:window-x="-9" inkscape:window-y="-9" inkscape:zoom="0.98994948" pagecolor="#ffffff" showgrid="false">
		</sodipodi:namedview>
</g>
<g>
	
		<sodipodi:namedview  bordercolor="#666666" borderopacity="1.0" id="base" inkscape:current-layer="layer1" inkscape:cx="238.22195" inkscape:cy="442.43337" inkscape:document-units="px" inkscape:pageopacity="0.0" inkscape:pageshadow="2" inkscape:snap-bbox="true" inkscape:snap-global="true" inkscape:snap-page="true" inkscape:window-height="925" inkscape:window-maximized="0" inkscape:window-width="735" inkscape:window-x="784" inkscape:window-y="63" inkscape:zoom="0.98994948" pagecolor="#ffffff" showgrid="false">
		</sodipodi:namedview>
</g>
<g>
	
		<sodipodi:namedview  bordercolor="#666666" borderopacity="1.0" id="base" inkscape:current-layer="layer1" inkscape:cx="249.72902" inkscape:cy="497.22806" inkscape:document-units="px" inkscape:pageopacity="0.0" inkscape:pageshadow="2" inkscape:snap-bbox="true" inkscape:snap-global="true" inkscape:snap-page="true" inkscape:window-height="925" inkscape:window-maximized="0" inkscape:window-width="735" inkscape:window-x="524" inkscape:window-y="60" inkscape:zoom="0.9899495" pagecolor="#ffffff" showgrid="false">
		</sodipodi:namedview>
	<g id="layer1_2_" inkscape:groupmode="layer" inkscape:label="Layer 1">
		<g id="g3500_1_" transform="translate(-712.31835,92.135109)">
			<g id="g3241_1_">
				<path id="path3192_1_" inkscape:connector-curvature="0" sodipodi:nodetypes="ccsscsccccc" d="M1060,443.4
					c0-6.9-5.5-7.2-5.5-2.1c-0.3,25.4-22,38.1-37.8,35c-24-4.5-31.9-28.5-31.6-42.6c0.7-43.6,44.6-75.8,84.1-131.4
					c29.2,50.4,76.9,89.9,79.6,129c3.8,51.8-61.8,71-71,10.6c-0.7-4.1-5.5-6.2-5.1-0.3c1.4,16.5-0.7,23.3,18.2,64.2h-48.7
					C1053.1,487,1059.3,463.6,1060,443.4L1060,443.4z"/>
			</g>
		</g>
	</g>
</g>
</svg>
