<?xml version="1.0" encoding="utf-8"?>
<!-- Generator: Adobe Illustrator 21.0.1, SVG Export Plug-In . SVG Version: 6.00 Build 0)  -->
<svg version="1.1" baseProfile="tiny"
	 id="svg4423" inkscape:version="0.48.1 r9760" sodipodi:docname="10H.svg" xmlns:cc="http://creativecommons.org/ns#" xmlns:dc="http://purl.org/dc/elements/1.1/" xmlns:inkscape="http://www.inkscape.org/namespaces/inkscape" xmlns:rdf="http://www.w3.org/1999/02/22-rdf-syntax-ns#" xmlns:sodipodi="http://sodipodi.sourceforge.net/DTD/sodipodi-0.dtd" xmlns:svg="http://www.w3.org/2000/svg"
	 xmlns="http://www.w3.org/2000/svg" xmlns:xlink="http://www.w3.org/1999/xlink" x="0px" y="0px" viewBox="0 0 223.2 311.8"
	 overflow="scroll" xml:space="preserve">
<sodipodi:namedview  bordercolor="#666666" borderopacity="1.0" id="base" inkscape:current-layer="layer1" inkscape:cx="126.73995" inkscape:cy="451.52252" inkscape:document-units="px" inkscape:pageopacity="0.0" inkscape:pageshadow="2" inkscape:snap-bbox="true" inkscape:snap-global="true" inkscape:snap-page="true" inkscape:window-height="925" inkscape:window-maximized="0" inkscape:window-width="735" inkscape:window-x="705" inkscape:window-y="60" inkscape:zoom="0.69999999" pagecolor="#ffffff" showgrid="false">
	</sodipodi:namedview>
<g id="layer1" inkscape:groupmode="layer" inkscape:label="10H">
	<g id="g8970" transform="translate(-1760.0774,-113.66123)">
		<g id="g8891">
			<g id="g8795" transform="translate(-4683.8753,2918.9368)">
				<path id="rect6365" fill="#FFFFFF" stroke="#000000" stroke-width="0.9967" d="M6454.6-2805.3h202c5.9,0,10.6,4.8,10.6,10.6
					v290.6c0,5.9-4.8,10.6-10.6,10.6h-202c-5.9,0-10.6-4.8-10.6-10.6v-290.6C6444-2800.5,6448.7-2805.3,6454.6-2805.3z"/>
				<g id="g8612" transform="matrix(0.30106207,0,0,0.30106207,5267.5599,-1982.7028)">
					<path id="path7216" inkscape:connector-curvature="0" sodipodi:nodetypes="ccccc" fill="#D40000" d="M3932.8-2581.6v-104.7
						h10.3v104.7H3932.8z"/>
					<path id="rect7235" inkscape:connector-curvature="0" fill="#D40000" d="M3973.8-2686.3c-9.9,0-17.9,8.9-17.9,20v64.6
						c0,11.1,8,20,17.9,20h5.8c9.9,0,18-8.9,18-20v-64.6c0-11.1-8-20-18-20H3973.8z M3976.8-2676.4c5.9,0,10.6,4.4,10.6,10v65.5
						c0,5.5-4.7,10-10.6,10s-10.6-4.5-10.6-10v-65.5C3966.2-2671.9,3970.9-2676.4,3976.8-2676.4z"/>
					<g id="g7984" transform="matrix(-0.50404239,0,0,-0.50404239,7403.6384,312.07817)">
						<path id="path7986" inkscape:connector-curvature="0" sodipodi:nodetypes="ccccc" fill="#D40000" d="M5515.5,4283.8v-207.6
							h20.5v207.6H5515.5z"/>
						<path id="path7988" inkscape:connector-curvature="0" fill="#D40000" d="M5596.7,4076.2c-19.7,0-35.6,17.7-35.6,39.7v128.3
							c0,22,15.9,39.7,35.6,39.7h11.5c19.7,0,35.6-17.7,35.6-39.7v-128.3c0-22-15.9-39.7-35.6-39.7H5596.7z M5602.7,4095.8
							c11.7,0,21,8.8,21,19.8v130c0,11-9.4,19.8-21,19.8s-21-8.8-21-19.8v-130C5581.6,4104.6,5591,4095.8,5602.7,4095.8z"/>
					</g>
				</g>
			</g>
		</g>
		<path id="path8644" inkscape:connector-curvature="0" sodipodi:nodetypes="cccccccc" fill="#D40000" d="M1768.6,173.8
			c-1.6-3.5-1.8-9.4,3-10.2c3.6-0.5,5,1.2,5.3,3.7c0.1,0.7,0.6,0.8,0.7-0.1c0.2-2.6,2.8-4.1,4.8-3.8c5.5,0.9,5.2,7,3.4,11.2
			c-2.7,5.5-5.6,8.9-8.2,14.5C1774.5,183.4,1771,178.7,1768.6,173.8L1768.6,173.8z"/>
		<path id="path8568" inkscape:connector-curvature="0" sodipodi:nodetypes="ccccsccssc" fill="#D40000" d="M1803.1,142
			c7.1-0.5,10.9,5.6,11.6,10.4c0.4,0.8,0.7,0.5,0.8,0c0.3-6.2,5.9-11.2,11-10.5c8.3,0.1,13.4,9.4,12,17.2
			c-1.7,9.6-6.9,15.4-10.8,21.3c-4.4,6.2-10.4,15-12.3,19.3c0,0-6-9.2-13.9-20c-5.3-7.2-9.5-15.1-9.9-21.8
			C1791.2,150.1,1794.3,143.2,1803.1,142L1803.1,142z"/>
		<path id="path8570" inkscape:connector-curvature="0" sodipodi:nodetypes="ccccsccssc" fill="#D40000" d="M1859.3,174.6
			c7.1-0.5,10.9,5.6,11.6,10.4c0.4,0.8,0.7,0.5,0.8,0c0.3-6.2,5.9-11.2,11-10.5c8.3,0.1,13.4,9.4,12,17.2
			c-1.7,9.6-6.9,15.4-10.8,21.3c-4.4,6.2-10.4,15-12.3,19.3c0,0-6-9.2-13.9-20c-5.3-7.2-9.5-15.1-9.9-21.8
			C1847.4,182.8,1850.5,175.8,1859.3,174.6L1859.3,174.6z"/>
		<path id="path8572" inkscape:connector-curvature="0" sodipodi:nodetypes="ccccsccssc" fill="#D40000" d="M1914.6,142
			c7.1-0.5,10.9,5.6,11.6,10.4c0.4,0.8,0.7,0.5,0.8,0c0.3-6.2,5.9-11.2,11-10.5c8.3,0.1,13.4,9.4,12,17.2
			c-1.7,9.6-6.9,15.4-10.8,21.3c-4.4,6.2-10.4,15-12.3,19.3c0,0-6-9.2-13.9-20c-5.3-7.2-9.5-15.1-9.9-21.8
			C1902.7,150.1,1905.9,143.2,1914.6,142L1914.6,142z"/>
		<path id="path8574" inkscape:connector-curvature="0" sodipodi:nodetypes="ccccsccssc" fill="#D40000" d="M1914.6,207.3
			c7.1-0.5,10.9,5.6,11.6,10.4c0.4,0.8,0.7,0.5,0.8,0c0.3-6.2,5.9-11.2,11-10.5c8.3,0.1,13.4,9.4,12,17.2
			c-1.7,9.6-6.9,15.4-10.8,21.3c-4.4,6.2-10.4,15-12.3,19.3c0,0-6-9.2-13.9-20c-5.3-7.2-9.5-15.1-9.9-21.8
			C1902.7,215.4,1905.9,208.5,1914.6,207.3L1914.6,207.3z"/>
		<path id="path8576" inkscape:connector-curvature="0" sodipodi:nodetypes="ccccsccssc" fill="#D40000" d="M1803.1,207.3
			c7.1-0.5,10.9,5.6,11.6,10.4c0.4,0.8,0.7,0.5,0.8,0c0.3-6.2,5.9-11.2,11-10.5c8.3,0.1,13.4,9.4,12,17.2
			c-1.7,9.6-6.9,15.4-10.8,21.3c-4.4,6.2-10.4,15-12.3,19.3c0,0-6-9.2-13.9-20c-5.3-7.2-9.5-15.1-9.9-21.8
			C1791.2,215.4,1794.3,208.5,1803.1,207.3L1803.1,207.3z"/>
		<path id="path8596" inkscape:connector-curvature="0" sodipodi:nodetypes="ccccsccssc" fill="#D40000" d="M1914.6,331.7
			c7.1,0.5,10.9-5.6,11.6-10.4c0.4-0.8,0.7-0.5,0.8,0c0.3,6.2,5.9,11.2,11,10.5c8.3-0.1,13.4-9.4,12-17.2
			c-1.7-9.6-6.9-15.4-10.8-21.3c-4.4-6.2-10.4-15-12.3-19.3c0,0-6,9.2-13.9,20c-5.3,7.2-9.5,15.1-9.9,21.8
			C1902.7,323.6,1905.9,330.5,1914.6,331.7L1914.6,331.7z"/>
		<path id="path8598" inkscape:connector-curvature="0" sodipodi:nodetypes="ccccsccssc" fill="#D40000" d="M1914.6,396.8
			c7.1,0.5,10.9-5.6,11.6-10.4c0.4-0.8,0.7-0.5,0.8,0c0.3,6.2,5.9,11.2,11,10.5c8.3-0.1,13.4-9.4,12-17.2
			c-1.7-9.6-6.9-15.4-10.8-21.3c-4.4-6.2-10.4-15-12.3-19.3c0,0-6,9.2-13.9,20c-5.3,7.2-9.5,15.1-9.9,21.8
			C1902.7,388.7,1905.9,395.6,1914.6,396.8L1914.6,396.8z"/>
		<path id="path8600" inkscape:connector-curvature="0" sodipodi:nodetypes="ccccsccssc" fill="#D40000" d="M1858.8,364.3
			c7.1,0.5,10.9-5.6,11.6-10.4c0.4-0.8,0.7-0.5,0.8,0c0.3,6.2,5.9,11.2,11,10.5c8.3-0.1,13.4-9.4,12-17.2
			c-1.7-9.6-6.9-15.4-10.8-21.3c-4.4-6.2-10.4-15-12.3-19.3c0,0-6,9.2-13.9,20c-5.3,7.2-9.5,15.1-9.9,21.8
			C1846.9,356.1,1850.1,363.1,1858.8,364.3L1858.8,364.3z"/>
		<path id="path8602" inkscape:connector-curvature="0" sodipodi:nodetypes="ccccsccssc" fill="#D40000" d="M1803.1,331.7
			c7.1,0.5,10.9-5.6,11.6-10.4c0.4-0.8,0.7-0.5,0.8,0c0.3,6.2,5.9,11.2,11,10.5c8.3-0.1,13.4-9.4,12-17.2
			c-1.7-9.6-6.9-15.4-10.8-21.3c-4.4-6.2-10.4-15-12.3-19.3c0,0-6,9.2-13.9,20c-5.3,7.2-9.5,15.1-9.9,21.8
			C1791.2,323.6,1794.3,330.5,1803.1,331.7L1803.1,331.7z"/>
		<path id="path8604" inkscape:connector-curvature="0" sodipodi:nodetypes="ccccsccssc" fill="#D40000" d="M1803.1,396.8
			c7.1,0.5,10.9-5.6,11.6-10.4c0.4-0.8,0.7-0.5,0.8,0c0.3,6.2,5.9,11.2,11,10.5c8.3-0.1,13.4-9.4,12-17.2
			c-1.7-9.6-6.9-15.4-10.8-21.3c-4.4-6.2-10.4-15-12.3-19.3c0,0-6,9.2-13.9,20c-5.3,7.2-9.5,15.1-9.9,21.8
			C1791.2,388.7,1794.3,395.6,1803.1,396.8L1803.1,396.8z"/>
		<path id="path8660" inkscape:connector-curvature="0" sodipodi:nodetypes="cccccccc" fill="#D40000" d="M1957.4,364.7
			c-1.6,3.5-1.8,9.4,3,10.2c3.6,0.5,5-1.2,5.3-3.7c0.1-0.7,0.6-0.8,0.7,0.1c0.2,2.6,2.8,4.1,4.8,3.8c5.5-0.9,5.2-7,3.4-11.2
			c-2.7-5.5-5.6-8.9-8.2-14.5C1963.3,355.1,1959.8,359.7,1957.4,364.7L1957.4,364.7z"/>
	</g>
</g>
</svg>
