<?xml version="1.0" encoding="utf-8"?>
<!-- Generator: Adobe Illustrator 21.0.1, SVG Export Plug-In . SVG Version: 6.00 Build 0)  -->
<svg version="1.1" baseProfile="tiny"
	 id="svg4423" inkscape:version="0.48.1 r9760" sodipodi:docname="AH.svg" xmlns:cc="http://creativecommons.org/ns#" xmlns:dc="http://purl.org/dc/elements/1.1/" xmlns:inkscape="http://www.inkscape.org/namespaces/inkscape" xmlns:rdf="http://www.w3.org/1999/02/22-rdf-syntax-ns#" xmlns:sodipodi="http://sodipodi.sourceforge.net/DTD/sodipodi-0.dtd" xmlns:svg="http://www.w3.org/2000/svg"
	 xmlns="http://www.w3.org/2000/svg" xmlns:xlink="http://www.w3.org/1999/xlink" x="0px" y="0px" viewBox="0 0 223.2 311.8"
	 overflow="scroll" xml:space="preserve">
<sodipodi:namedview  bordercolor="#666666" borderopacity="1.0" id="base" inkscape:current-layer="layer1" inkscape:cx="238.22195" inkscape:cy="442.43337" inkscape:document-units="px" inkscape:pageopacity="0.0" inkscape:pageshadow="2" inkscape:snap-bbox="true" inkscape:snap-global="true" inkscape:snap-page="true" inkscape:window-height="925" inkscape:window-maximized="0" inkscape:window-width="735" inkscape:window-x="784" inkscape:window-y="63" inkscape:zoom="0.98994948" pagecolor="#ffffff" showgrid="false">
	</sodipodi:namedview>
<g id="layer1" inkscape:groupmode="layer" inkscape:label="Layer 1">
	<g id="g8889" transform="translate(-1090.3923,198.14981)">
		<g id="g8763">
			<g id="g8869" transform="translate(-4683.8753,2918.9368)">
				<path id="rect3232" fill="#FFFFFF" stroke="#000000" stroke-width="0.9967" d="M5784.9-3117.1h202c5.9,0,10.6,4.8,10.6,10.6
					v290.6c0,5.9-4.8,10.6-10.6,10.6h-202c-5.9,0-10.6-4.8-10.6-10.6v-290.6C5774.3-3112.3,5779-3117.1,5784.9-3117.1z"/>
				<g id="g8567" transform="matrix(0.30106207,0,0,0.30106207,5730.6419,-1948.1116)">
					<path id="path7183" inkscape:connector-curvature="0" sodipodi:nodetypes="ccccccccccccccccccccc" fill="#D40000" d="
						M168.9-3729.8v-9.1h8.8l18.8-97.2h10.7l20.7,97.2h7.1v9.1h-24.3v-9.1h6.6l-2.6-14.9h-24.5l-1.9,14.9h6.6v9.1H168.9z
						 M212.7-3764.4l-10.7-52.1l-10,52.1H212.7z"/>
					<path id="path7186" inkscape:connector-curvature="0" sodipodi:nodetypes="ccccccccccccccccccccc" fill="#D40000" d="
						M862.3-3000.1v9.1h-8.8l-18.8,97.2H824l-20.7-97.2h-7.1v-9.1h24.3v9.1h-6.6l2.6,14.9H841l1.9-14.9h-6.6v-9.1H862.3z
						 M818.6-2965.5l10.7,52.1l10-52.1H818.6z"/>
				</g>
			</g>
		</g>
		<path id="path8626" inkscape:connector-curvature="0" sodipodi:nodetypes="cccccccc" fill="#D40000" d="M1098.7-137.4
			c-1.6-3.5-1.8-9.4,3-10.2c3.6-0.5,5,1.2,5.3,3.7c0.1,0.7,0.6,0.8,0.7-0.1c0.2-2.6,2.8-4.1,4.8-3.7c5.5,0.9,5.2,7,3.4,11.2
			c-2.7,5.5-5.6,8.9-8.2,14.5C1104.6-127.8,1101.1-132.5,1098.7-137.4L1098.7-137.4z"/>
		<path id="path8512" inkscape:connector-curvature="0" sodipodi:nodetypes="ccccsccssc" fill="#D40000" d="M1190-71
			c7.1-0.5,10.9,5.6,11.6,10.4c0.4,0.8,0.7,0.5,0.8,0c0.3-6.2,5.9-11.2,11-10.5c8.3,0.1,13.4,9.4,12,17.2
			c-1.7,9.6-6.9,15.4-10.8,21.3c-4.4,6.2-10.4,15-12.3,19.3c0,0-6-9.2-13.9-20c-5.3-7.2-9.5-15.1-9.9-21.8
			C1178-62.9,1181.2-69.8,1190-71L1190-71z"/>
		<path id="path8648" inkscape:connector-curvature="0" sodipodi:nodetypes="cccccccc" fill="#D40000" d="M1287.1,53.3
			c-1.6,3.5-1.8,9.4,3,10.2c3.6,0.5,5-1.2,5.3-3.7c0.1-0.7,0.6-0.8,0.7,0.1c0.2,2.6,2.8,4.1,4.8,3.7c5.5-0.9,5.2-7,3.4-11.2
			c-2.7-5.5-5.6-8.9-8.2-14.5C1292.9,43.7,1289.5,48.4,1287.1,53.3L1287.1,53.3z"/>
	</g>
</g>
</svg>
