<?xml version="1.0" encoding="utf-8"?>
<!-- Generator: Adobe Illustrator 21.0.1, SVG Export Plug-In . SVG Version: 6.00 Build 0)  -->
<svg version="1.1" baseProfile="tiny"
	 id="svg4423" inkscape:version="0.48.1 r9760" sodipodi:docname="4H.svg" xmlns:cc="http://creativecommons.org/ns#" xmlns:dc="http://purl.org/dc/elements/1.1/" xmlns:inkscape="http://www.inkscape.org/namespaces/inkscape" xmlns:rdf="http://www.w3.org/1999/02/22-rdf-syntax-ns#" xmlns:sodipodi="http://sodipodi.sourceforge.net/DTD/sodipodi-0.dtd" xmlns:svg="http://www.w3.org/2000/svg"
	 xmlns="http://www.w3.org/2000/svg" xmlns:xlink="http://www.w3.org/1999/xlink" x="0px" y="0px" viewBox="0 0 223.2 311.8"
	 overflow="scroll" xml:space="preserve">
<sodipodi:namedview  bordercolor="#666666" borderopacity="1.0" id="base" inkscape:current-layer="layer1" inkscape:cx="249.10806" inkscape:cy="483.12663" inkscape:document-units="px" inkscape:pageopacity="0.0" inkscape:pageshadow="2" inkscape:snap-bbox="true" inkscape:snap-global="true" inkscape:snap-page="true" inkscape:window-height="925" inkscape:window-maximized="0" inkscape:window-width="735" inkscape:window-x="577" inkscape:window-y="44" inkscape:zoom="0.98994948" pagecolor="#ffffff" showgrid="false">
	</sodipodi:namedview>
<g id="layer1" inkscape:groupmode="layer" inkscape:label="4H">
	<g id="g8925" transform="translate(-1760.0774,198.14981)">
		<g id="g8796">
			<g id="g8902" transform="translate(-4683.8753,2918.9368)">
				<path id="rect6353" fill="#FFFFFF" stroke="#000000" stroke-width="0.9967" d="M6454.6-3117.1h202c5.9,0,10.6,4.8,10.6,10.6
					v290.6c0,5.9-4.8,10.6-10.6,10.6h-202c-5.9,0-10.6-4.8-10.6-10.6v-290.6C6444-3112.3,6448.7-3117.1,6454.6-3117.1z"/>
				<g id="g8591" transform="matrix(0.30106207,0,0,0.30106207,5623.2929,-1949.6699)">
					<path id="path7104" inkscape:connector-curvature="0" sodipodi:nodetypes="cccccccccccccccccccc" fill="#D40000" d="
						M2785.1-3723.6v-9.3h8.6v-15.4h-42.9v-10.9l46.5-70.1l7.6,0v70.1h13.1v10.9h-13.1l-0.3,15.4h7.2v9.3L2785.1-3723.6z
						 M2793.7-3803.7l-29.5,44.4h29.5V-3803.7z"/>
					<path id="path7159" inkscape:connector-curvature="0" sodipodi:nodetypes="cccccccccccccccccccc" fill="#D40000" d="
						M3408.1-2996v9.3h-8.6v15.4h42.9v10.9l-46.5,70.1l-7.6,0v-70.1h-13.1v-10.9h13.1l0.3-15.4h-7.2v-9.3H3408.1z M3399.5-2916
						l29.5-44.4h-29.5V-2916z"/>
				</g>
			</g>
		</g>
		<path id="path8638" inkscape:connector-curvature="0" sodipodi:nodetypes="cccccccc" fill="#D40000" d="M1768.8-137.2
			c-1.6-3.5-1.8-9.4,3-10.2c3.6-0.5,5,1.2,5.3,3.7c0.1,0.7,0.6,0.8,0.7-0.1c0.2-2.6,2.8-4.1,4.8-3.7c5.5,0.9,5.2,7,3.4,11.2
			c-2.7,5.5-5.6,8.9-8.2,14.5C1774.7-127.6,1771.3-132.2,1768.8-137.2L1768.8-137.2z"/>
		<path id="path8520" inkscape:connector-curvature="0" sodipodi:nodetypes="ccccsccssc" fill="#D40000" d="M1805.1-172.1
			c7.1-0.5,10.9,5.6,11.6,10.4c0.4,0.8,0.7,0.5,0.8,0c0.3-6.2,5.9-11.2,11-10.5c8.3,0.1,13.4,9.4,12,17.2
			c-1.7,9.6-6.9,15.4-10.8,21.3c-4.4,6.2-10.4,15-12.3,19.3c0,0-6-9.2-13.9-20c-5.3-7.2-9.5-15.1-9.9-21.8
			C1793.1-164,1796.3-170.9,1805.1-172.1L1805.1-172.1z"/>
		<path id="path8522" inkscape:connector-curvature="0" sodipodi:nodetypes="ccccsccssc" fill="#D40000" d="M1914.6-172.1
			c7.1-0.5,10.9,5.6,11.6,10.4c0.4,0.8,0.7,0.5,0.8,0c0.3-6.2,5.9-11.2,11-10.5c8.3,0.1,13.4,9.4,12,17.2
			c-1.7,9.6-6.9,15.4-10.8,21.3c-4.4,6.2-10.4,15-12.3,19.3c0,0-6-9.2-13.9-20c-5.3-7.2-9.5-15.1-9.9-21.8
			C1902.7-164,1905.8-170.9,1914.6-172.1L1914.6-172.1z"/>
		<path id="path8584" inkscape:connector-curvature="0" sodipodi:nodetypes="ccccsccssc" fill="#D40000" d="M1805.1,84.3
			c7.1,0.5,10.9-5.6,11.6-10.4c0.4-0.8,0.7-0.5,0.8,0c0.3,6.2,5.9,11.2,11,10.5c8.3-0.1,13.4-9.4,12-17.2
			c-1.7-9.6-6.9-15.4-10.8-21.3c-4.4-6.2-10.4-15-12.3-19.3c0,0-6,9.2-13.9,20c-5.3,7.2-9.5,15.1-9.9,21.8
			C1793.1,76.1,1796.3,83.1,1805.1,84.3L1805.1,84.3z"/>
		<path id="path8586" inkscape:connector-curvature="0" sodipodi:nodetypes="ccccsccssc" fill="#D40000" d="M1914.6,84.3
			c7.1,0.5,10.9-5.6,11.6-10.4c0.4-0.8,0.7-0.5,0.8,0c0.3,6.2,5.9,11.2,11,10.5c8.3-0.1,13.4-9.4,12-17.2
			c-1.7-9.6-6.9-15.4-10.8-21.3c-4.4-6.2-10.4-15-12.3-19.3c0,0-6,9.2-13.9,20c-5.3,7.2-9.5,15.1-9.9,21.8
			C1902.7,76.1,1905.8,83.1,1914.6,84.3L1914.6,84.3z"/>
		<path id="path8654" inkscape:connector-curvature="0" sodipodi:nodetypes="cccccccc" fill="#D40000" d="M1956.1,53
			c-1.6,3.5-1.8,9.4,3,10.2c3.6,0.5,5-1.2,5.3-3.7c0.1-0.7,0.6-0.8,0.7,0.1c0.2,2.6,2.8,4.1,4.8,3.7c5.5-0.9,5.2-7,3.4-11.2
			c-2.7-5.5-5.6-8.9-8.2-14.5C1961.9,43.4,1958.5,48,1956.1,53L1956.1,53z"/>
	</g>
</g>
</svg>
