<?xml version="1.0" encoding="utf-8"?>
<!-- Generator: Adobe Illustrator 21.0.1, SVG Export Plug-In . SVG Version: 6.00 Build 0)  -->
<svg version="1.1" baseProfile="tiny"
	 id="svg4423" inkscape:version="0.48.1 r9760" sodipodi:docname="5H.svg" xmlns:cc="http://creativecommons.org/ns#" xmlns:dc="http://purl.org/dc/elements/1.1/" xmlns:inkscape="http://www.inkscape.org/namespaces/inkscape" xmlns:rdf="http://www.w3.org/1999/02/22-rdf-syntax-ns#" xmlns:sodipodi="http://sodipodi.sourceforge.net/DTD/sodipodi-0.dtd" xmlns:svg="http://www.w3.org/2000/svg"
	 xmlns="http://www.w3.org/2000/svg" xmlns:xlink="http://www.w3.org/1999/xlink" x="0px" y="0px" viewBox="0 0 223.2 311.8"
	 overflow="scroll" xml:space="preserve">
<sodipodi:namedview  bordercolor="#666666" borderopacity="1.0" id="base" inkscape:current-layer="layer1" inkscape:cx="199.26695" inkscape:cy="514.96342" inkscape:document-units="px" inkscape:pageopacity="0.0" inkscape:pageshadow="2" inkscape:snap-bbox="true" inkscape:snap-global="true" inkscape:snap-page="true" inkscape:window-height="925" inkscape:window-maximized="0" inkscape:window-width="735" inkscape:window-x="578" inkscape:window-y="17" inkscape:zoom="0.98994948" pagecolor="#ffffff" showgrid="false">
	</sodipodi:namedview>
<g id="layer1" inkscape:groupmode="layer" inkscape:label="5H">
	<g id="g8939" transform="translate(-1983.3059,198.14981)">
		<g id="g8809">
			<g id="g8915" transform="translate(-4683.8753,2918.9368)">
				<path id="rect6355" fill="#FFFFFF" stroke="#000000" stroke-width="0.9967" d="M6677.8-3117.1h202c5.9,0,10.6,4.8,10.6,10.6
					v290.6c0,5.9-4.8,10.6-10.6,10.6h-202c-5.9,0-10.6-4.8-10.6-10.6v-290.6C6667.2-3112.3,6671.9-3117.1,6677.8-3117.1z"/>
				<g id="g8601" transform="matrix(0.30106207,0,0,0.30106207,5562.5812,-1947.8121)">
					<path id="path7106" inkscape:connector-curvature="0" sodipodi:nodetypes="cccssccccccccccc" fill="#D40000" d="M3696.2-3759.1
						l10.7-0.1c2,6.5,6.6,13,12.7,14.9c17.3,4.1,28.5-5.6,32.1-16.8c4.5-13.5-0.1-32.5-12-39.3c-9.9-5.6-24.6-0.9-31.3,11.1
						l-7.5-4.6l4-44.6h48.9v10.5h-39.7l-0.6,18.6c8.5-6,21.7-5.9,30.2-1.7c16.2,7.7,23.7,25.2,20.5,45.9
						c-4.4,20.5-13.9,32.2-35.6,33.8C3704.6-3731.2,3696.1-3747.7,3696.2-3759.1L3696.2-3759.1z"/>
					<path id="path7122" inkscape:connector-curvature="0" sodipodi:nodetypes="cccssccccccccccc" fill="#D40000" d="M4383.3-2972.8
						l-10.7,0.1c-2-6.5-6.6-13-12.7-14.9c-17.3-4.1-28.5,5.6-32.1,16.8c-4.5,13.5,0.1,32.5,12,39.3c9.9,5.6,24.6,0.9,31.3-11.1
						l7.5,4.6l-4,44.6h-48.9v-10.5h39.7l0.6-18.6c-8.5,6-21.7,5.9-30.2,1.7c-16.2-7.7-23.7-25.2-20.5-45.9
						c4.4-20.5,13.9-32.2,35.6-33.8C4374.9-3000.8,4383.4-2984.2,4383.3-2972.8L4383.3-2972.8z"/>
				</g>
			</g>
		</g>
		<path id="path8640" inkscape:connector-curvature="0" sodipodi:nodetypes="cccccccc" fill="#D40000" d="M1992.8-137.6
			c-1.6-3.5-1.8-9.4,3-10.2c3.6-0.5,5,1.2,5.3,3.7c0.1,0.7,0.6,0.8,0.7-0.1c0.2-2.6,2.8-4.1,4.8-3.7c5.5,0.9,5.2,7,3.4,11.2
			c-2.7,5.5-5.6,8.9-8.2,14.5C1998.7-128,1995.2-132.6,1992.8-137.6L1992.8-137.6z"/>
		<path id="path8524" inkscape:connector-curvature="0" sodipodi:nodetypes="ccccsccssc" fill="#D40000" d="M2027.4-170.2
			c7.1-0.5,10.9,5.6,11.6,10.4c0.4,0.8,0.7,0.5,0.8,0c0.3-6.2,5.9-11.2,11-10.5c8.3,0.1,13.4,9.4,12,17.2
			c-1.7,9.6-6.9,15.4-10.8,21.3c-4.4,6.2-10.4,15-12.3,19.3c0,0-6-9.2-13.9-20c-5.3-7.2-9.5-15.1-9.9-21.8
			C2015.4-162.1,2018.6-169,2027.4-170.2L2027.4-170.2z"/>
		<path id="path8526" inkscape:connector-curvature="0" sodipodi:nodetypes="ccccsccssc" fill="#D40000" d="M2138-170.2
			c7.1-0.5,10.9,5.6,11.6,10.4c0.4,0.8,0.7,0.5,0.8,0c0.3-6.2,5.9-11.2,11-10.5c8.3,0.1,13.4,9.4,12,17.2
			c-1.7,9.6-6.9,15.4-10.8,21.3c-4.4,6.2-10.4,15-12.3,19.3c0,0-6-9.2-13.9-20c-5.3-7.2-9.5-15.1-9.9-21.8
			C2126.1-162.1,2129.3-169,2138-170.2L2138-170.2z"/>
		<path id="path8528" inkscape:connector-curvature="0" sodipodi:nodetypes="ccccsccssc" fill="#D40000" d="M2082.9-71
			c7.1-0.5,10.9,5.6,11.6,10.4c0.4,0.8,0.7,0.5,0.8,0c0.3-6.2,5.9-11.2,11-10.5c8.3,0.1,13.4,9.4,12,17.2
			c-1.7,9.6-6.9,15.4-10.8,21.3c-4.4,6.2-10.4,15-12.3,19.3c0,0-6-9.2-13.9-20c-5.3-7.2-9.5-15.1-9.9-21.8
			C2070.9-62.9,2074.1-69.8,2082.9-71L2082.9-71z"/>
		<path id="path8588" inkscape:connector-curvature="0" sodipodi:nodetypes="ccccsccssc" fill="#D40000" d="M2027.4,83.9
			c7.1,0.5,10.9-5.6,11.6-10.4c0.4-0.8,0.7-0.5,0.8,0c0.3,6.2,5.9,11.2,11,10.5c8.3-0.1,13.4-9.4,12-17.2
			c-1.7-9.6-6.9-15.4-10.8-21.3c-4.4-6.2-10.4-15-12.3-19.3c0,0-6,9.2-13.9,20c-5.3,7.2-9.5,15.1-9.9,21.8
			C2015.4,75.8,2018.6,82.7,2027.4,83.9L2027.4,83.9z"/>
		<path id="path8590" inkscape:connector-curvature="0" sodipodi:nodetypes="ccccsccssc" fill="#D40000" d="M2138,83.9
			c7.1,0.5,10.9-5.6,11.6-10.4c0.4-0.8,0.7-0.5,0.8,0c0.3,6.2,5.9,11.2,11,10.5c8.3-0.1,13.4-9.4,12-17.2
			c-1.7-9.6-6.9-15.4-10.8-21.3c-4.4-6.2-10.4-15-12.3-19.3c0,0-6,9.2-13.9,20c-5.3,7.2-9.5,15.1-9.9,21.8
			C2126.1,75.8,2129.3,82.7,2138,83.9L2138,83.9z"/>
		<path id="path8656" inkscape:connector-curvature="0" sodipodi:nodetypes="cccccccc" fill="#D40000" d="M2179.5,53.3
			c-1.6,3.5-1.8,9.4,3,10.2c3.6,0.5,5-1.2,5.3-3.7c0.1-0.7,0.6-0.8,0.7,0.1c0.2,2.6,2.8,4.1,4.8,3.7c5.5-0.9,5.2-7,3.4-11.2
			c-2.7-5.5-5.6-8.9-8.2-14.5C2185.4,43.7,2181.9,48.4,2179.5,53.3L2179.5,53.3z"/>
	</g>
</g>
</svg>
