<?xml version="1.0" encoding="utf-8"?>
<!-- Generator: Adobe Illustrator 21.0.1, SVG Export Plug-In . SVG Version: 6.00 Build 0)  -->
<svg version="1.1" baseProfile="tiny"
	 id="svg4423" inkscape:version="0.48.1 r9760" sodipodi:docname="6H.svg" xmlns:cc="http://creativecommons.org/ns#" xmlns:dc="http://purl.org/dc/elements/1.1/" xmlns:inkscape="http://www.inkscape.org/namespaces/inkscape" xmlns:rdf="http://www.w3.org/1999/02/22-rdf-syntax-ns#" xmlns:sodipodi="http://sodipodi.sourceforge.net/DTD/sodipodi-0.dtd" xmlns:svg="http://www.w3.org/2000/svg"
	 xmlns="http://www.w3.org/2000/svg" xmlns:xlink="http://www.w3.org/1999/xlink" x="0px" y="0px" viewBox="0 0 223.2 311.8"
	 overflow="scroll" xml:space="preserve">
<sodipodi:namedview  bordercolor="#666666" borderopacity="1.0" id="base" inkscape:current-layer="layer1" inkscape:cx="40.510903" inkscape:cy="601.70801" inkscape:document-units="px" inkscape:pageopacity="0.0" inkscape:pageshadow="2" inkscape:snap-bbox="true" inkscape:snap-global="true" inkscape:snap-page="true" inkscape:window-height="925" inkscape:window-maximized="0" inkscape:window-width="735" inkscape:window-x="1105" inkscape:window-y="41" inkscape:zoom="0.49497474" pagecolor="#ffffff" showgrid="false">
	</sodipodi:namedview>
<g id="layer1" inkscape:groupmode="layer" inkscape:label="6h">
	<g id="g8954" transform="translate(-2206.5344,198.14981)">
		<g id="g8823">
			<g id="g8929" transform="translate(-4683.8753,2918.9368)">
				<path id="rect6357" fill="#FFFFFF" stroke="#000000" stroke-width="0.9967" d="M6901-3117.1h202c5.9,0,10.6,4.8,10.6,10.6v290.6
					c0,5.9-4.8,10.6-10.6,10.6h-202c-5.9,0-10.6-4.8-10.6-10.6v-290.6C6890.4-3112.3,6895.2-3117.1,6901-3117.1z"/>
				<g id="g8673" transform="matrix(0.30106207,0,0,0.30106207,6829.277,-2295.2794)">
					<path id="path7108" inkscape:connector-curvature="0" sodipodi:nodetypes="cssccacccccszsss" fill="#D40000" d="M230.4-2610.1
						c-1.4-9.1-1.3-32.7-0.2-39.7c3.4-21.4,11.7-31.1,25.7-34.3c13.5-3.1,32.5,0.4,36.7,18.2l-11.3,0.2c-6.1-12.1-21.6-8.8-30.3-3.6
						c-7,4.2-10.1,21.7-8.7,22.7c0,0,13.1-9.6,23.5-8.9c22.1,2.3,31.3,21.1,30.5,38.9c-0.7,21.4-7.6,38.5-31.1,39.7
						C242.8-2577.6,232.6-2589.6,230.4-2610.1z M285.5-2615.8c0.1-14.9-6.8-26-19.8-27.2c-13-1.2-26.1,11.2-25.2,26.4
						c0.9,15.2,6.9,28,22.7,27.9C280.1-2588.7,285.4-2605.2,285.5-2615.8L285.5-2615.8z"/>
					<path id="path7161" inkscape:connector-curvature="0" sodipodi:nodetypes="cssccacccccszsss" fill="#D40000" d="M917.2-1813.6
						c1.4,9.1,1.3,32.7,0.2,39.7c-3.4,21.4-11.7,31.1-25.7,34.3c-13.5,3.1-32.5-0.4-36.7-18.2l11.3-0.2c6.1,12.1,21.6,8.8,30.3,3.6
						c7-4.2,10.1-21.7,8.7-22.7c0,0-13.1,9.6-23.5,8.9c-22.1-2.3-31.3-21.1-30.5-38.9c0.7-21.4,7.6-38.5,31.1-39.7
						C904.8-1846,915-1834.1,917.2-1813.6L917.2-1813.6z M862.1-1807.9c-0.1,14.9,6.8,26,19.8,27.2c13,1.2,26.1-11.2,25.2-26.4
						c-0.9-15.2-6.9-28-22.7-27.9C867.5-1834.9,862.2-1818.5,862.1-1807.9L862.1-1807.9z"/>
				</g>
			</g>
		</g>
		<path id="path8642" inkscape:connector-curvature="0" sodipodi:nodetypes="cccccccc" fill="#D40000" d="M2215.2-138.8
			c-1.6-3.5-1.8-9.4,3-10.2c3.6-0.5,5,1.2,5.3,3.7c0.1,0.7,0.6,0.8,0.7-0.1c0.2-2.6,2.8-4.1,4.8-3.7c5.5,0.9,5.2,7,3.4,11.2
			c-2.7,5.5-5.6,8.9-8.2,14.5C2221.1-129.2,2217.6-133.8,2215.2-138.8L2215.2-138.8z"/>
		<path id="path8530" inkscape:connector-curvature="0" sodipodi:nodetypes="ccccsccssc" fill="#D40000" d="M2250.5-169.8
			c7.1-0.5,10.9,5.6,11.6,10.4c0.4,0.8,0.7,0.5,0.8,0c0.3-6.2,5.9-11.2,11-10.5c8.3,0.1,13.4,9.4,12,17.2
			c-1.7,9.6-6.9,15.4-10.8,21.3c-4.4,6.2-10.4,15-12.3,19.3c0,0-6-9.2-13.9-20c-5.3-7.2-9.5-15.1-9.9-21.8
			C2238.5-161.7,2241.7-168.6,2250.5-169.8L2250.5-169.8z"/>
		<path id="path8532" inkscape:connector-curvature="0" sodipodi:nodetypes="ccccsccssc" fill="#D40000" d="M2362-169.8
			c7.1-0.5,10.9,5.6,11.6,10.4c0.4,0.8,0.7,0.5,0.8,0c0.3-6.2,5.9-11.2,11-10.5c8.3,0.1,13.4,9.4,12,17.2
			c-1.7,9.6-6.9,15.4-10.8,21.3c-4.4,6.2-10.4,15-12.3,19.3c0,0-6-9.2-13.9-20c-5.3-7.2-9.5-15.1-9.9-21.8
			C2350.1-161.7,2353.2-168.6,2362-169.8L2362-169.8z"/>
		<path id="path8534" inkscape:connector-curvature="0" sodipodi:nodetypes="ccccsccssc" fill="#D40000" d="M2362-70.9
			c7.1-0.5,10.9,5.6,11.6,10.4c0.4,0.8,0.7,0.5,0.8,0c0.3-6.2,5.9-11.2,11-10.5c8.3,0.1,13.4,9.4,12,17.2
			c-1.7,9.6-6.9,15.4-10.8,21.3c-4.4,6.2-10.4,15-12.3,19.3c0,0-6-9.2-13.9-20c-5.3-7.2-9.5-15.1-9.9-21.8
			C2350.1-62.8,2353.2-69.7,2362-70.9L2362-70.9z"/>
		<path id="path8536" inkscape:connector-curvature="0" sodipodi:nodetypes="ccccsccssc" fill="#D40000" d="M2250.5-70.9
			c7.1-0.5,10.9,5.6,11.6,10.4c0.4,0.8,0.7,0.5,0.8,0c0.3-6.2,5.9-11.2,11-10.5c8.3,0.1,13.4,9.4,12,17.2
			c-1.7,9.6-6.9,15.4-10.8,21.3c-4.4,6.2-10.4,15-12.3,19.3c0,0-6-9.2-13.9-20c-5.3-7.2-9.5-15.1-9.9-21.8
			C2238.5-62.8,2241.7-69.7,2250.5-70.9L2250.5-70.9z"/>
		<path id="path8592" inkscape:connector-curvature="0" sodipodi:nodetypes="ccccsccssc" fill="#D40000" d="M2250.5,85.2
			c7.1,0.5,10.9-5.6,11.6-10.4c0.4-0.8,0.7-0.5,0.8,0c0.3,6.2,5.9,11.2,11,10.5c8.3-0.1,13.4-9.4,12-17.2
			c-1.7-9.6-6.9-15.4-10.8-21.3c-4.4-6.2-10.4-15-12.3-19.3c0,0-6,9.2-13.9,20c-5.3,7.2-9.5,15.1-9.9,21.8
			C2238.5,77.1,2241.7,84,2250.5,85.2L2250.5,85.2z"/>
		<path id="path8594" inkscape:connector-curvature="0" sodipodi:nodetypes="ccccsccssc" fill="#D40000" d="M2362,85.2
			c7.1,0.5,10.9-5.6,11.6-10.4c0.4-0.8,0.7-0.5,0.8,0c0.3,6.2,5.9,11.2,11,10.5c8.3-0.1,13.4-9.4,12-17.2
			c-1.7-9.6-6.9-15.4-10.8-21.3c-4.4-6.2-10.4-15-12.3-19.3c0,0-6,9.2-13.9,20c-5.3,7.2-9.5,15.1-9.9,21.8
			C2350.1,77.1,2353.2,84,2362,85.2L2362,85.2z"/>
		<path id="path8658" inkscape:connector-curvature="0" sodipodi:nodetypes="cccccccc" fill="#D40000" d="M2404,52.1
			c-1.6,3.5-1.8,9.4,3,10.2c3.6,0.5,5-1.2,5.3-3.7c0.1-0.7,0.6-0.8,0.7,0.1c0.2,2.6,2.8,4.1,4.8,3.7c5.5-0.9,5.2-7,3.4-11.2
			c-2.7-5.5-5.6-8.9-8.2-14.5C2409.9,42.5,2406.4,47.2,2404,52.1L2404,52.1z"/>
	</g>
</g>
</svg>
