<?xml version="1.0" encoding="utf-8"?>
<!-- Generator: Adobe Illustrator 21.0.1, SVG Export Plug-In . SVG Version: 6.00 Build 0)  -->
<svg version="1.1" baseProfile="tiny"
	 id="svg4423" inkscape:version="0.48.1 r9760" sodipodi:docname="8H.svg" xmlns:cc="http://creativecommons.org/ns#" xmlns:dc="http://purl.org/dc/elements/1.1/" xmlns:inkscape="http://www.inkscape.org/namespaces/inkscape" xmlns:rdf="http://www.w3.org/1999/02/22-rdf-syntax-ns#" xmlns:sodipodi="http://sodipodi.sourceforge.net/DTD/sodipodi-0.dtd" xmlns:svg="http://www.w3.org/2000/svg"
	 xmlns="http://www.w3.org/2000/svg" xmlns:xlink="http://www.w3.org/1999/xlink" x="0px" y="0px" viewBox="0 0 223.2 311.8"
	 overflow="scroll" xml:space="preserve">
<sodipodi:namedview  bordercolor="#666666" borderopacity="1.0" id="base" inkscape:current-layer="layer1" inkscape:cx="187.31121" inkscape:cy="375.39925" inkscape:document-units="px" inkscape:pageopacity="0.0" inkscape:pageshadow="2" inkscape:snap-bbox="true" inkscape:snap-global="true" inkscape:snap-page="true" inkscape:window-height="925" inkscape:window-maximized="0" inkscape:window-width="735" inkscape:window-x="803" inkscape:window-y="66" inkscape:zoom="0.98994948" pagecolor="#ffffff" showgrid="false">
	</sodipodi:namedview>
<g id="layer1" inkscape:groupmode="layer" inkscape:label="8H">
	<g id="g9013" transform="translate(-1313.6208,-113.66123)">
		<g id="g8854">
			<g id="g8836" transform="translate(-4683.8753,2918.9368)">
				<path id="rect6361" fill="#FFFFFF" stroke="#000000" stroke-width="0.9967" d="M6008.1-2805.3h202c5.9,0,10.6,4.8,10.6,10.6
					v290.6c0,5.9-4.8,10.6-10.6,10.6h-202c-5.9,0-10.6-4.8-10.6-10.6v-290.6C5997.5-2800.5,6002.3-2805.3,6008.1-2805.3z"/>
				<g id="g8646" transform="matrix(0.30106207,0,0,0.30106207,5370.0941,-1979.9322)">
					<path id="path7112" inkscape:connector-curvature="0" sodipodi:nodetypes="zcszsczzzssssssssss" fill="#D40000" d="
						M2106.7-2616.7c0.5-14.5,5.9-20,16.4-27.6c-8.4-6-11.9-14.7-11.2-22.2c1.7-18.1,16-27.1,31.5-26.7c15.5,0.4,28.9,12.5,30,25.6
						c0.9,11.4-2.6,16.9-10.8,23c9.8,8.1,16.1,13.5,15.8,27.8c-0.2,14.3-12.6,31.4-34.3,31.9
						C2122.5-2584.5,2106.2-2602.2,2106.7-2616.7L2106.7-2616.7z M2167.1-2616.7c0.9-13.2-10.9-22-24.3-22.2
						c-13-0.1-24.7,10.8-24.7,22.6c0,12.7,15.2,19.6,24.9,19.6C2154.9-2596.6,2166.3-2605.3,2167.1-2616.7L2167.1-2616.7z
						 M2162.8-2663.7c0.3-11.1-10.2-19-20.9-18.7c-9.6,0.3-19.7,7.4-19.7,16.7c0,11.6,11.5,17.4,21.3,17.6
						C2152.4-2647.9,2162.6-2655.4,2162.8-2663.7z"/>
					<path id="path7128" inkscape:connector-curvature="0" sodipodi:nodetypes="zcszsczzzssssssssss" fill="#D40000" d="
						M2802.7-1830.5c-0.5,14.5-5.9,20-16.4,27.6c8.4,6,11.9,14.7,11.2,22.2c-1.7,18.1-16,27.1-31.5,26.7
						c-15.5-0.4-28.9-12.5-30-25.6c-0.9-11.4,2.6-16.9,10.8-23c-9.8-8.1-16.1-13.5-15.8-27.8c0.2-14.3,12.6-31.4,34.3-31.9
						C2786.9-1862.7,2803.2-1845,2802.7-1830.5L2802.7-1830.5z M2742.3-1830.5c-0.9,13.2,10.9,22,24.3,22.2
						c13,0.1,24.7-10.8,24.7-22.6c0-12.7-15.2-19.6-24.9-19.6C2754.5-1850.6,2743.1-1841.8,2742.3-1830.5L2742.3-1830.5z
						 M2746.6-1783.4c-0.3,11.1,10.2,19,20.9,18.7c9.6-0.3,19.7-7.4,19.7-16.7c0-11.6-11.5-17.4-21.3-17.6
						C2757-1799.2,2746.8-1791.8,2746.6-1783.4z"/>
				</g>
			</g>
		</g>
		<path id="path8634" inkscape:connector-curvature="0" sodipodi:nodetypes="cccccccc" fill="#D40000" d="M1323.2,176.6
			c-1.6-3.5-1.8-9.4,3-10.2c3.6-0.5,5,1.2,5.3,3.7c0.1,0.7,0.6,0.8,0.7-0.1c0.2-2.6,2.8-4.1,4.8-3.8c5.5,0.9,5.2,7,3.4,11.2
			c-2.7,5.5-5.6,8.9-8.2,14.5C1329.1,186.2,1325.6,181.5,1323.2,176.6L1323.2,176.6z"/>
		<path id="path8548" inkscape:connector-curvature="0" sodipodi:nodetypes="ccccsccssc" fill="#D40000" d="M1358.2,141.3
			c7.1-0.5,10.9,5.6,11.6,10.4c0.4,0.8,0.7,0.5,0.8,0c0.3-6.2,5.9-11.2,11-10.5c8.3,0.1,13.4,9.4,12,17.2
			c-1.7,9.6-6.9,15.4-10.8,21.3c-4.4,6.2-10.4,15-12.3,19.3c0,0-6-9.2-13.9-20c-5.3-7.2-9.5-15.1-9.9-21.8
			C1346.2,149.4,1349.4,142.5,1358.2,141.3L1358.2,141.3z"/>
		<path id="path8550" inkscape:connector-curvature="0" sodipodi:nodetypes="ccccsccssc" fill="#D40000" d="M1467.7,141.3
			c7.1-0.5,10.9,5.6,11.6,10.4c0.4,0.8,0.7,0.5,0.8,0c0.3-6.2,5.9-11.2,11-10.5c8.3,0.1,13.4,9.4,12,17.2
			c-1.7,9.6-6.9,15.4-10.8,21.3c-4.4,6.2-10.4,15-12.3,19.3c0,0-6-9.2-13.9-20c-5.3-7.2-9.5-15.1-9.9-21.8
			C1455.8,149.4,1458.9,142.5,1467.7,141.3L1467.7,141.3z"/>
		<path id="path8552" inkscape:connector-curvature="0" sodipodi:nodetypes="ccccsccssc" fill="#D40000" d="M1412.4,191.4
			c7.1-0.5,10.9,5.6,11.6,10.4c0.4,0.8,0.7,0.5,0.8,0c0.3-6.2,5.9-11.2,11-10.5c8.3,0.1,13.4,9.4,12,17.2
			c-1.7,9.6-6.9,15.4-10.8,21.3c-4.4,6.2-10.4,15-12.3,19.3c0,0-6-9.2-13.9-20c-5.3-7.2-9.5-15.1-9.9-21.8
			C1400.4,199.5,1403.6,192.6,1412.4,191.4L1412.4,191.4z"/>
		<path id="path8554" inkscape:connector-curvature="0" sodipodi:nodetypes="ccccsccssc" fill="#D40000" d="M1358.2,241.5
			c7.1-0.5,10.9,5.6,11.6,10.4c0.4,0.8,0.7,0.5,0.8,0c0.3-6.2,5.9-11.2,11-10.5c8.3,0.1,13.4,9.4,12,17.2
			c-1.7,9.6-6.9,15.4-10.8,21.3c-4.4,6.2-10.4,15-12.3,19.3c0,0-6-9.2-13.9-20c-5.3-7.2-9.5-15.1-9.9-21.8
			C1346.2,249.7,1349.4,242.7,1358.2,241.5L1358.2,241.5z"/>
		<path id="path8556" inkscape:connector-curvature="0" sodipodi:nodetypes="ccccsccssc" fill="#D40000" d="M1467.7,241.5
			c7.1-0.5,10.9,5.6,11.6,10.4c0.4,0.8,0.7,0.5,0.8,0c0.3-6.2,5.9-11.2,11-10.5c8.3,0.1,13.4,9.4,12,17.2
			c-1.7,9.6-6.9,15.4-10.8,21.3c-4.4,6.2-10.4,15-12.3,19.3c0,0-6-9.2-13.9-20c-5.3-7.2-9.5-15.1-9.9-21.8
			C1455.8,249.7,1458.9,242.7,1467.7,241.5L1467.7,241.5z"/>
		<path id="path8614" inkscape:connector-curvature="0" sodipodi:nodetypes="ccccsccssc" fill="#D40000" d="M1467.7,397.6
			c7.1,0.5,10.9-5.6,11.6-10.4c0.4-0.8,0.7-0.5,0.8,0c0.3,6.2,5.9,11.2,11,10.5c8.3-0.1,13.4-9.4,12-17.2
			c-1.7-9.6-6.9-15.4-10.8-21.3c-4.4-6.2-10.4-15-12.3-19.3c0,0-6,9.2-13.9,20c-5.3,7.2-9.5,15.1-9.9,21.8
			C1455.8,389.5,1458.9,396.4,1467.7,397.6L1467.7,397.6z"/>
		<path id="path8616" inkscape:connector-curvature="0" sodipodi:nodetypes="ccccsccssc" fill="#D40000" d="M1412.4,348.3
			c7.1,0.5,10.9-5.6,11.6-10.4c0.4-0.8,0.7-0.5,0.8,0c0.3,6.2,5.9,11.2,11,10.5c8.3-0.1,13.4-9.4,12-17.2
			c-1.7-9.6-6.9-15.4-10.8-21.3c-4.4-6.2-10.4-15-12.3-19.3c0,0-6,9.2-13.9,20c-5.3,7.2-9.5,15.1-9.9,21.8
			C1400.4,340.2,1403.6,347.1,1412.4,348.3L1412.4,348.3z"/>
		<path id="path8618" inkscape:connector-curvature="0" sodipodi:nodetypes="ccccsccssc" fill="#D40000" d="M1358.2,397.6
			c7.1,0.5,10.9-5.6,11.6-10.4c0.4-0.8,0.7-0.5,0.8,0c0.3,6.2,5.9,11.2,11,10.5c8.3-0.1,13.4-9.4,12-17.2
			c-1.7-9.6-6.9-15.4-10.8-21.3c-4.4-6.2-10.4-15-12.3-19.3c0,0-6,9.2-13.9,20c-5.3,7.2-9.5,15.1-9.9,21.8
			C1346.2,389.5,1349.4,396.4,1358.2,397.6L1358.2,397.6z"/>
		<path id="path8664" inkscape:connector-curvature="0" sodipodi:nodetypes="cccccccc" fill="#D40000" d="M1512,367.4
			c-1.6,3.5-1.8,9.4,3,10.2c3.6,0.5,5-1.2,5.3-3.7c0.1-0.7,0.6-0.8,0.7,0.1c0.2,2.6,2.8,4.1,4.8,3.8c5.5-0.9,5.2-7,3.4-11.2
			c-2.7-5.5-5.6-8.9-8.2-14.5C1517.9,357.8,1514.4,362.5,1512,367.4L1512,367.4z"/>
	</g>
</g>
</svg>
